<svg width="36" height="26" viewBox="0 0 36 26" fill="none" xmlns="http://www.w3.org/2000/svg">
<path fill-rule="evenodd" clip-rule="evenodd" d="M0.5 4.25C0.5 2.17894 2.17894 0.5 4.25 0.5H31.75C33.8211 0.5 35.5 2.17894 35.5 4.25V5.5H0.5V4.25ZM0.5 8H35.5V21.75C35.5 23.8211 33.8211 25.5 31.75 25.5H4.25C2.17894 25.5 0.5 23.8211 0.5 21.75V8ZM20.5 16.75C19.8096 16.75 19.25 17.3096 19.25 18C19.25 18.6904 19.8096 19.25 20.5 19.25H28C28.6904 19.25 29.25 18.6904 29.25 18C29.25 17.3096 28.6904 16.75 28 16.75H20.5Z" fill="white"/>
</svg>
