<svg width="40" height="40" viewBox="0 0 40 40" fill="none" xmlns="http://www.w3.org/2000/svg">
<g clip-path="url(#clip0_10787_47164)">
<path d="M16.4683 13.7684C17.1016 13.9917 17.7541 13.6607 17.9709 13.068C18.1898 12.4628 17.8839 11.7897 17.2705 11.5654C16.6442 11.3422 15.9863 11.6684 15.7679 12.2658C15.5489 12.8711 15.8549 13.544 16.4683 13.7684Z" fill="white"/>
<path d="M20.6295 17.2108C24.651 17.102 28.6014 15.6647 31.7543 13.1629C32.1574 12.8436 32.6335 12.6581 33.1275 12.5388L33.5899 11.269C33.7627 10.7952 33.6128 10.2642 33.2168 9.9506C29.2766 6.82404 24.3362 5.02623 19.3065 4.88771C14.9075 4.76756 10.7257 3.22685 7.21246 0.582167L6.78675 0.252557C6.49261 0.0202136 6.10472 -0.0575989 5.74074 0.0442761C5.37792 0.147245 5.0873 0.417323 4.9591 0.770995L0.0709717 14.0636C-0.101841 14.5373 0.0480811 15.0683 0.442925 15.3819C3.20785 17.5754 6.54511 19.0974 9.97785 19.8692C13.2877 18.2464 16.9325 17.3124 20.6295 17.2108ZM22.3753 14.6705C22.5967 14.0622 23.2692 13.7487 23.8773 13.97C24.4856 14.1914 24.7991 14.8639 24.5777 15.472C24.3564 16.0803 23.6839 16.3938 23.0757 16.1724C22.4675 15.9511 22.1539 15.2786 22.3753 14.6705ZM13.5662 11.4647C14.2288 9.64388 16.2533 8.70092 18.0718 9.36349C19.8936 10.0261 20.8367 12.0483 20.1729 13.869C19.511 15.6897 17.4875 16.6349 15.6674 15.9702C13.8439 15.3056 12.8994 13.2941 13.5662 11.4647ZM9.16089 9.86092C9.38222 9.25264 10.0546 8.93912 10.6629 9.16053C11.2711 9.38185 11.5846 10.0543 11.3633 10.6624C11.1419 11.2707 10.4694 11.5842 9.86128 11.3628C9.25308 11.1415 8.93949 10.469 9.16089 9.86092Z" fill="white"/>
<path d="M11.2197 39.2283C11.3479 39.5831 11.6397 39.8532 12.0014 39.955C12.3739 40.0604 12.761 39.9747 13.0497 39.7456C16.5962 36.9315 21.0422 35.2352 25.5672 35.1116C30.5969 34.9732 35.6154 33.1753 39.5568 30.0487C39.9516 29.7351 40.1015 29.2041 39.9287 28.7304L35.0407 15.5159C34.9125 15.1611 34.6207 14.8911 34.259 14.7892C33.8951 14.6862 33.5072 14.764 33.2108 14.9986C29.6642 17.8128 25.2182 19.4309 20.6932 19.5534C15.6647 19.6918 10.7242 21.4897 6.78286 24.6174C6.38692 24.931 6.237 25.462 6.40982 25.9357L11.2197 39.2283ZM29.3368 23.8267C29.9451 23.6054 30.6175 23.919 30.8388 24.5271C31.0602 25.1354 30.7467 25.8078 30.1384 26.0291C29.5303 26.2504 28.8578 25.9368 28.6364 25.3287C28.4151 24.7204 28.7286 24.0481 29.3368 23.8267ZM21.928 24.0291C23.7499 23.3665 25.7721 24.3095 26.4336 26.1303C27.0973 27.9511 26.1543 29.9732 24.3324 30.6358C22.5171 31.2973 20.4962 30.3712 19.8268 28.5347C19.1631 26.7139 20.1061 24.6917 21.928 24.0291ZM16.1224 28.6364C16.7305 28.415 17.403 28.7286 17.6244 29.3368C17.8458 29.945 17.5322 30.6175 16.924 30.8388C16.3158 31.0601 15.6433 30.7465 15.422 30.1384C15.2006 29.5301 15.5142 28.8576 16.1224 28.6364Z" fill="white"/>
<path d="M23.5312 28.4339C24.1454 28.2093 24.4504 27.5359 24.2316 26.9313C24.0132 26.3342 23.3556 26.0075 22.729 26.2309C22.1149 26.4556 21.8099 27.1289 22.0286 27.7335C22.2489 28.3358 22.9154 28.6582 23.5312 28.4339Z" fill="white"/>
</g>
<defs>
<clipPath id="clip0_10787_47164">
<rect width="40" height="40" fill="white"/>
</clipPath>
</defs>
</svg>
