<svg width="40" height="40" viewBox="0 0 40 40" fill="none" xmlns="http://www.w3.org/2000/svg">
<path d="M20 0C8.97182 0 0 8.97182 0 20C0 31.0282 8.97182 40 20 40C31.0282 40 40 31.0282 40 20C40 8.97182 31.0282 0 20 0ZM20 35.6284C11.3823 35.6284 4.37158 28.6177 4.37158 20C4.37158 11.3827 11.3823 4.37158 20 4.37158C28.6177 4.37158 35.6284 11.3827 35.6284 20C35.6284 28.6177 28.6177 35.6284 20 35.6284Z" fill="white"/>
<path d="M21.7312 20.024V11.6416C21.7312 10.7056 20.9728 9.94714 20.0372 9.94714C19.1013 9.94714 18.3428 10.7056 18.3428 11.6416V20.5653C18.3428 20.592 18.3493 20.617 18.3506 20.6436C18.3283 21.1043 18.4871 21.5721 18.8389 21.9241L25.1494 28.234C25.8112 28.8959 26.884 28.8959 27.5454 28.234C28.2068 27.5721 28.2073 26.4994 27.5454 25.8379L21.7312 20.024Z" fill="white"/>
</svg>
