<svg width="30" height="30" viewBox="0 0 30 30" fill="none" xmlns="http://www.w3.org/2000/svg">
<g clip-path="url(#clip0_10783_46982)">
<path d="M28.7504 15C28.7504 15.9375 28.2254 16.7625 27.4629 17.1875L20.9629 20.8L15.4629 15L20.9629 9.20001L27.4629 12.8125C28.2254 13.2375 28.7504 14.0625 28.7504 15Z" fill="#FFC107"/>
<path d="M15.4625 15L1.9625 29.2375C1.5125 28.7875 1.25 28.175 1.25 27.5V2.50001C1.25 1.82501 1.5125 1.21251 1.9625 0.762512L15.4625 15Z" fill="#03A9F4"/>
<path d="M15.4629 15L20.9629 20.8C4.49664 29.8312 3.80664 31.1838 1.96289 29.2375L15.4629 15Z" fill="#F44336"/>
<path d="M20.9629 9.2L15.4629 15L1.96289 0.762503C2.73539 -0.0537473 3.97414 -0.232497 4.96289 0.312503L20.9629 9.2Z" fill="#4CAF50"/>
</g>
<defs>
<clipPath id="clip0_10783_46982">
<rect width="30" height="30" fill="white"/>
</clipPath>
</defs>
</svg>
