<svg width="70" height="70" viewBox="0 0 70 70" fill="none" xmlns="http://www.w3.org/2000/svg">
<path d="M22.0791 30.5941L20.396 31.9802C20.0989 31.5842 19.7029 31.1881 19.1088 30.9901C18.6138 30.7921 18.0197 30.6931 17.5247 30.6931C16.2375 30.6931 15.2474 31.0891 14.4554 31.9802C13.6633 32.8713 13.2672 33.9604 13.2672 35.2475C13.2672 36.6337 13.6633 37.7228 14.4554 38.6139C15.2474 39.505 16.2375 39.901 17.5247 39.901C18.8118 39.901 19.9009 39.4059 20.594 38.4158L22.3762 39.703C21.188 41.1881 19.6039 41.8812 17.5247 41.8812C15.5445 41.8812 13.9603 41.2871 12.6732 40C11.3861 38.8119 10.792 37.2277 10.792 35.2475C10.792 33.2673 11.3861 31.6832 12.6732 30.4951C13.9603 29.3069 15.5445 28.7129 17.5247 28.7129C18.4158 28.7129 19.2078 28.9109 20.0989 29.2079C20.99 29.505 21.6831 30 22.0791 30.5941Z" fill="#003366"/>
<path d="M23.5645 41.4852V32.9703H25.6437V34.3564C25.8417 33.8614 26.2377 33.4654 26.6338 33.1683C27.0298 32.8713 27.5249 32.6733 28.1189 32.6733C28.3169 32.6733 28.515 32.6733 28.614 32.7723V34.7525C28.4159 34.6535 28.1189 34.6535 27.9209 34.6535C27.5249 34.6535 27.2278 34.7525 26.9308 34.8515C26.6338 34.9505 26.4357 35.1485 26.2377 35.2475C26.0397 35.4455 25.9407 35.6436 25.8417 35.8416C25.7427 36.0396 25.6437 36.2376 25.6437 36.4356C25.6437 36.6337 25.5447 36.7327 25.5447 36.9307V41.4852H23.5645Z" fill="#003366"/>
<path d="M37.9211 37.4257C37.9211 37.6238 37.9211 37.8218 37.9211 38.0198H31.4855C31.4855 38.6139 31.7825 39.1089 32.2775 39.505C32.7726 39.901 33.2676 40.099 33.9607 40.099C34.9508 40.099 35.6439 39.703 36.2379 39.0099L37.6241 40.099C36.832 41.1881 35.5449 41.7822 33.9607 41.7822C32.6736 41.7822 31.5845 41.3861 30.6934 40.5941C29.8023 39.802 29.4062 38.7129 29.4062 37.3267C29.4062 35.9406 29.8023 34.8515 30.6934 34.0594C31.5845 33.2673 32.5746 32.7723 33.8617 32.7723C35.0498 32.7723 36.0399 33.1683 36.832 33.9604C37.5251 34.7525 37.9211 35.9406 37.9211 37.4257ZM31.3864 36.4356H35.7429C35.7429 35.8416 35.5449 35.3465 35.2478 34.9505C34.9508 34.5545 34.4558 34.3564 33.7627 34.3564C33.1686 34.3564 32.5746 34.5545 32.1785 34.9505C31.6835 35.3465 31.4855 35.8416 31.3864 36.4356Z" fill="#003366"/>
<path d="M48.02 28.2178V41.5842H46.0398V40.297C45.7428 40.7921 45.3468 41.1881 44.8517 41.3861C44.3567 41.5842 43.7626 41.7822 43.1686 41.7822C41.8814 41.7822 40.8913 41.3861 40.0993 40.4951C39.3072 39.604 38.9111 38.5149 38.9111 37.3267C38.9111 36.0396 39.3072 34.9505 40.0993 34.1584C40.8913 33.2673 41.8814 32.8713 43.0695 32.8713C44.2577 32.8713 45.2478 33.2673 45.9408 34.1584H46.0398V28.2178H48.02ZM41.6834 35.3465C41.2874 35.8416 40.9903 36.5347 40.9903 37.2277C40.9903 37.9208 41.1884 38.6139 41.6834 39.1089C42.0794 39.703 42.6735 39.901 43.4656 39.901C44.1587 39.901 44.8517 39.604 45.2478 39.1089C45.7428 38.5149 45.9408 37.9208 45.9408 37.2277C45.9408 36.5347 45.7428 35.8416 45.2478 35.3465C44.7527 34.7525 44.1587 34.4554 43.4656 34.4554C42.7725 34.5545 42.1785 34.7525 41.6834 35.3465Z" fill="#003366"/>
<path d="M50.0992 31.0891C49.8021 30.7921 49.7031 30.495 49.7031 30.198C49.7031 29.901 49.8021 29.604 50.0992 29.3069C50.3962 29.0099 50.6932 28.9109 51.0893 28.9109C51.4853 28.9109 51.7823 29.0099 52.0794 29.3069C52.3764 29.5049 52.4754 29.901 52.4754 30.198C52.4754 30.5941 52.3764 30.8911 52.0794 31.0891C51.7823 31.2871 51.4853 31.4851 51.0893 31.4851C50.6932 31.4851 50.3962 31.2871 50.0992 31.0891ZM50.0992 41.4851V32.9703H52.1784V41.4851H50.0992Z" fill="#003366"/>
<path d="M55.0496 34.7525H53.5645V33.0693H55.0496V30.5941H57.1288V33.0693H59.208V34.7525H57.1288V38.7129C57.1288 39.1089 57.2278 39.505 57.3268 39.703C57.5249 39.901 57.8219 40 58.2179 40C58.614 40 58.911 39.901 59.109 39.802L59.208 41.4852C58.812 41.6832 58.3169 41.6832 57.8219 41.6832C56.8318 41.6832 56.0397 41.3861 55.6437 40.8911C55.2476 40.396 55.0496 39.604 55.0496 38.7129V34.7525Z" fill="#003366"/>
<path d="M61.0891 11.5842C60.6931 11.1881 60.198 10.9901 59.703 10.9901C58.6139 10.9901 57.8218 11.8812 57.8218 12.8713C57.8218 13.3663 58.0198 13.7624 58.3168 14.1584C63.4653 19.901 66.3366 27.3267 66.3366 34.9505C66.3366 52.1782 52.3762 66.1386 35.1485 66.1386C17.9208 66.1386 3.86139 52.1782 3.86139 35.0495C3.86139 17.8218 17.8218 3.86139 35.0495 3.86139C37.8218 3.86139 40.495 4.25743 43.1683 4.9505C43.2673 4.9505 43.3663 4.9505 43.5644 4.9505C44.6535 4.9505 45.4455 4.05941 45.4455 3.06931C45.4455 2.17822 44.8515 1.48515 44.0594 1.18812C41.0891 0.39604 38.0198 0 34.9505 0C15.7426 0 0 15.7426 0 35.0495C0 54.3564 15.7426 70.099 35.0495 70.099C54.3564 70.099 70.099 54.3564 70.099 35.0495C70 26.3366 66.8317 18.0198 61.0891 11.5842Z" fill="#FF8900"/>
<path d="M47.6241 9.90099H49.9013V12.1782C49.9013 13.2673 50.7924 14.0594 51.7825 14.0594C52.8716 14.0594 53.6637 13.1683 53.6637 12.1782V9.90099H55.9409C57.03 9.90099 57.8221 9.0099 57.8221 8.0198C57.8221 6.93069 56.931 6.13861 55.9409 6.13861H53.6637V3.86139C53.6637 2.77228 52.7726 1.9802 51.7825 1.9802C50.6934 1.9802 49.9013 2.87129 49.9013 3.86139V6.13861H47.6241C46.535 6.13861 45.7429 7.0297 45.7429 8.0198C45.6439 9.0099 46.535 9.90099 47.6241 9.90099Z" fill="#FF8900"/>
</svg>
