<svg width="40" height="40" fill="none" xmlns="http://www.w3.org/2000/svg"><g clip-path="url(#clip0_10787_47164)" fill="#fff"><path d="M16.468 13.768a1.172 1.172 0 10.803-2.202 1.172 1.172 0 00-.803 2.202z"/><path d="M20.63 17.21a18.828 18.828 0 0011.124-4.047c.403-.32.88-.505 1.373-.624l.463-1.27a1.17 1.17 0 00-.373-1.318 23.562 23.562 0 00-13.91-5.063c-4.4-.12-8.581-1.661-12.095-4.306l-.425-.33A1.17 1.17 0 004.959.77L.071 14.065a1.171 1.171 0 00.372 1.318c2.765 2.193 6.102 3.715 9.535 4.487 3.31-1.623 6.955-2.557 10.652-2.658zm1.745-2.54a1.172 1.172 0 112.203.802 1.172 1.172 0 01-2.203-.801zm-8.809-3.205a3.521 3.521 0 014.506-2.102 3.518 3.518 0 012.1 4.506 3.519 3.519 0 01-4.505 2.101 3.512 3.512 0 01-2.1-4.505zM9.161 9.86a1.172 1.172 0 112.202.801 1.172 1.172 0 01-2.202-.801zm2.059 29.368a1.17 1.17 0 001.83.517c3.546-2.813 7.992-4.51 12.517-4.633 5.03-.139 10.048-1.937 13.99-5.063.395-.314.544-.845.372-1.319L35.04 15.516a1.17 1.17 0 00-1.83-.517 21.188 21.188 0 01-12.518 4.554 23.561 23.561 0 00-13.91 5.064 1.17 1.17 0 00-.373 1.319l4.81 13.292zm18.117-15.401a1.172 1.172 0 11.801 2.202 1.172 1.172 0 01-.801-2.202zm-7.409.202a3.52 3.52 0 014.506 2.101 3.518 3.518 0 01-2.102 4.506 3.513 3.513 0 01-4.505-2.101 3.519 3.519 0 012.101-4.506zm-5.806 4.607a1.172 1.172 0 11.802 2.203 1.172 1.172 0 01-.802-2.203z"/><path d="M23.531 28.434a1.172 1.172 0 10-.802-2.203 1.172 1.172 0 00.802 2.203z"/></g><defs><clipPath id="clip0_10787_47164"><path fill="#fff" d="M0 0h40v40H0z"/></clipPath></defs></svg>