<svg width="30" height="30" fill="none" xmlns="http://www.w3.org/2000/svg"><g clip-path="url(#clip0_10783_46982)"><path d="M28.75 15c0 .938-.525 1.762-1.287 2.188l-6.5 3.612-5.5-5.8 5.5-5.8 6.5 3.613A2.513 2.513 0 0128.75 15z" fill="#FFC107"/><path d="M15.463 15l-13.5 14.238A2.437 2.437 0 011.25 27.5v-25c0-.675.262-1.287.712-1.737L15.463 15z" fill="#03A9F4"/><path d="M15.463 15l5.5 5.8c-16.466 9.031-17.156 10.384-19 8.438L15.463 15z" fill="#F44336"/><path d="M20.963 9.2l-5.5 5.8L1.963.763a2.484 2.484 0 013-.45l16 8.887z" fill="#4CAF50"/></g><defs><clipPath id="clip0_10783_46982"><path fill="#fff" d="M0 0h30v30H0z"/></clipPath></defs></svg>