<svg width="70" height="70" fill="none" xmlns="http://www.w3.org/2000/svg"><path d="M22.08 30.594l-1.684 1.386c-.297-.396-.693-.792-1.287-.99a4.484 4.484 0 00-1.584-.297c-1.287 0-2.278.396-3.07 1.287-.792.891-1.188 1.98-1.188 3.268 0 1.386.396 2.475 1.188 3.366.792.891 1.783 1.287 3.07 1.287s2.376-.495 3.069-1.485l1.782 1.287c-1.188 1.485-2.772 2.178-4.851 2.178-1.98 0-3.565-.594-4.852-1.881-1.287-1.188-1.881-2.772-1.881-4.752s.594-3.565 1.881-4.753c1.287-1.188 2.871-1.782 4.852-1.782.89 0 1.683.198 2.574.495.891.297 1.584.792 1.98 1.386zm1.484 10.891V32.97h2.08v1.386c.198-.495.594-.89.99-1.188a2.432 2.432 0 011.485-.495c.198 0 .396 0 .495.1v1.98c-.198-.1-.495-.1-.693-.1-.396 0-.693.1-.99.199-.297.099-.495.297-.693.396-.198.198-.297.396-.396.594-.1.198-.198.396-.198.594 0 .198-.1.297-.1.495v4.554h-1.98zm14.357-4.059v.594h-6.436c0 .594.297 1.089.793 1.485.495.396.99.594 1.683.594.99 0 1.683-.396 2.277-1.09l1.386 1.09c-.792 1.09-2.08 1.683-3.663 1.683-1.287 0-2.377-.396-3.268-1.188-.89-.792-1.287-1.881-1.287-3.267s.396-2.475 1.287-3.268c.891-.792 1.882-1.287 3.169-1.287 1.188 0 2.178.396 2.97 1.188.693.792 1.09 1.98 1.09 3.466zm-6.535-.99h4.357c0-.594-.198-1.09-.495-1.486-.297-.396-.792-.594-1.485-.594-.594 0-1.188.198-1.584.594-.496.396-.694.892-.793 1.486zm16.634-8.218v13.366h-1.98v-1.287c-.297.495-.693.891-1.188 1.09-.495.197-1.09.395-1.683.395-1.288 0-2.278-.396-3.07-1.287-.792-.891-1.188-1.98-1.188-3.168 0-1.287.396-2.377 1.188-3.169.792-.89 1.782-1.287 2.97-1.287 1.189 0 2.179.396 2.872 1.287h.099v-5.94h1.98zm-6.337 7.128c-.396.496-.693 1.189-.693 1.882 0 .693.198 1.386.693 1.88.396.595.99.793 1.783.793.693 0 1.386-.297 1.782-.792.495-.594.693-1.188.693-1.881 0-.693-.198-1.386-.693-1.882-.495-.593-1.09-.89-1.782-.89-.694.098-1.288.296-1.783.89zM50.1 31.09c-.298-.298-.397-.595-.397-.892 0-.297.1-.594.396-.891.297-.297.594-.396.99-.396s.693.099.99.396c.297.198.396.594.396.891 0 .396-.099.693-.396.891-.297.198-.594.396-.99.396s-.693-.198-.99-.396zm0 10.395V32.97h2.078v8.515H50.1zm4.95-6.733h-1.485V33.07h1.485v-2.475h2.079v2.475h2.079v1.683h-2.08v3.96c0 .397.1.793.199.991.198.198.495.297.89.297.397 0 .694-.099.892-.198l.099 1.683c-.396.198-.891.198-1.386.198-.99 0-1.782-.297-2.178-.792-.396-.495-.594-1.287-.594-2.178v-3.96z" fill="#036"/><path d="M61.09 11.584a1.955 1.955 0 00-1.387-.594 1.88 1.88 0 00-1.881 1.881c0 .495.198.891.495 1.287 5.148 5.743 8.02 13.169 8.02 20.792 0 17.228-13.96 31.189-31.189 31.189-17.227 0-31.287-13.96-31.287-31.09 0-17.227 13.96-31.188 31.189-31.188 2.772 0 5.445.396 8.118 1.09h.396a1.88 1.88 0 001.882-1.882c0-.89-.594-1.584-1.387-1.88A35.387 35.387 0 0034.951 0C15.742 0 0 15.743 0 35.05c0 19.306 15.743 35.049 35.05 35.049 19.306 0 35.049-15.743 35.049-35.05-.099-8.712-3.267-17.03-9.01-23.465z" fill="#FF8900"/><path d="M47.624 9.901h2.277v2.277a1.88 1.88 0 001.881 1.881 1.88 1.88 0 001.882-1.88V9.9h2.277a1.88 1.88 0 001.881-1.881 1.88 1.88 0 00-1.881-1.881h-2.277V3.86a1.88 1.88 0 00-1.882-1.88 1.88 1.88 0 00-1.88 1.88v2.28h-2.278a1.88 1.88 0 00-1.881 1.88c-.1.99.792 1.882 1.881 1.882z" fill="#FF8900"/></svg>